M48
;DRILL file {KiCad (5.0.0-rc2-dev-111-gc69db6c)} date Tuesday, March 20, 2018 at 12:35:19 AM
;FORMAT={2:4/ absolute / inch / suppress leading zeros}
FMAT,2
INCH,TZ
T1C0.0157
T2C0.0394
%
G90
G05
M72
T1
X36047Y-20516
X36047Y-22130
X36165Y-19335
X36362Y-26972
X36677Y-25280
X43843Y-12098
X45732Y-12720
X46058Y-14094
X46165Y-14531
X46402Y-32287
X46441Y-13587
X46559Y-22130
X46795Y-30122
X47031Y-31146
X47213Y-13082
X47228Y-34335
X47425Y-32287
X47885Y-14571
X48016Y-14138
X48213Y-13744
X48764Y-34413
X50535Y-35122
X57661Y-34256
X57898Y-30398
X58055Y-27248
X58134Y-20516
X58252Y-33665
X58409Y-27799
X58488Y-22110
X58646Y-20319
T2
X49150Y-16122
X49150Y-17122
X49150Y-18122
X49150Y-19122
X49150Y-20122
X49150Y-21122
X49150Y-22122
X49150Y-23122
X49150Y-24122
X49150Y-25122
X49150Y-26122
X49150Y-27122
X49150Y-28122
X49150Y-29122
X49150Y-30122
X49150Y-31122
X37339Y-16122
X37339Y-17122
X37339Y-18122
X37339Y-19122
X37339Y-20122
X37339Y-21122
X37339Y-22122
X37339Y-23122
X37339Y-24122
X37339Y-25122
X37339Y-26122
X37339Y-27122
X37339Y-28122
X37339Y-29122
X37339Y-30122
X37339Y-31122
X35945Y-12323
X35945Y-34921
X45339Y-20122
X45339Y-21122
X45339Y-22122
X45339Y-23122
X45339Y-24122
X45339Y-25122
X45339Y-26122
X45339Y-27122
X45339Y-28122
X45339Y-29122
X45339Y-30122
X45339Y-31122
X57150Y-20122
X57150Y-21122
X57150Y-22122
X57150Y-23122
X57150Y-24122
X57150Y-25122
X57150Y-26122
X57150Y-27122
X57150Y-28122
X57150Y-29122
X57150Y-30122
X57150Y-31122
X58543Y-34921
X58567Y-12327
T0
M30
