G04 #@! TF.GenerationSoftware,KiCad,Pcbnew,(5.0.0-rc2-dev-111-gc69db6c)*
G04 #@! TF.CreationDate,2018-03-20T00:35:28-07:00*
G04 #@! TF.ProjectId,Feather_Trellis,466561746865725F5472656C6C69732E,rev?*
G04 #@! TF.SameCoordinates,Original*
G04 #@! TF.FileFunction,Profile,NP*
%FSLAX46Y46*%
G04 Gerber Fmt 4.6, Leading zero omitted, Abs format (unit mm)*
G04 Created by KiCad (PCBNEW (5.0.0-rc2-dev-111-gc69db6c)) date Tuesday, March 20, 2018 at 12:35:28 AM*
%MOMM*%
%LPD*%
G01*
G04 APERTURE LIST*
%ADD10C,0.150000*%
G04 APERTURE END LIST*
D10*
X126110000Y-80320000D02*
X126110000Y-39680000D01*
X128650000Y-80320000D02*
X126110000Y-80320000D01*
X128650000Y-86600000D02*
X128650000Y-80320000D01*
X141350000Y-86600000D02*
X128650000Y-86600000D01*
X141350000Y-80320000D02*
X141350000Y-86600000D01*
X143890000Y-80320000D02*
X141350000Y-80320000D01*
X143890000Y-49840000D02*
X143890000Y-80320000D01*
X146430000Y-49840000D02*
X143890000Y-49840000D01*
X146430000Y-39680000D02*
X146430000Y-49840000D01*
X141350000Y-39680000D02*
X146430000Y-39680000D01*
X141350000Y-33400000D02*
X141350000Y-39680000D01*
X128650000Y-33400000D02*
X141350000Y-33400000D01*
X128650000Y-39680000D02*
X128650000Y-33400000D01*
X126110000Y-39680000D02*
X128650000Y-39680000D01*
X96110000Y-80320000D02*
X96110000Y-39680000D01*
X98650000Y-80320000D02*
X96110000Y-80320000D01*
X98650000Y-86600000D02*
X98650000Y-80320000D01*
X111350000Y-86600000D02*
X98650000Y-86600000D01*
X111350000Y-80320000D02*
X111350000Y-86600000D01*
X113890000Y-80320000D02*
X111350000Y-80320000D01*
X113890000Y-49840000D02*
X113890000Y-80320000D01*
X116430000Y-49840000D02*
X113890000Y-49840000D01*
X116430000Y-39680000D02*
X116430000Y-49840000D01*
X111350000Y-39680000D02*
X116430000Y-39680000D01*
X111350000Y-33400000D02*
X111350000Y-39680000D01*
X98650000Y-33400000D02*
X111350000Y-33400000D01*
X98650000Y-39680000D02*
X98650000Y-33400000D01*
X96110000Y-39680000D02*
X98650000Y-39680000D01*
X150000000Y-30000000D02*
X90000000Y-30000000D01*
X150000000Y-90000000D02*
X150000000Y-30000000D01*
X90000000Y-90000000D02*
X150000000Y-90000000D01*
X90000000Y-30000000D02*
X90000000Y-90000000D01*
M02*
