G04 #@! TF.GenerationSoftware,KiCad,Pcbnew,(5.0.0-rc2-dev-111-gc69db6c)*
G04 #@! TF.CreationDate,2018-03-20T00:35:28-07:00*
G04 #@! TF.ProjectId,Feather_Trellis,466561746865725F5472656C6C69732E,rev?*
G04 #@! TF.SameCoordinates,Original*
G04 #@! TF.FileFunction,Copper,L2,Bot,Signal*
G04 #@! TF.FilePolarity,Positive*
%FSLAX46Y46*%
G04 Gerber Fmt 4.6, Leading zero omitted, Abs format (unit mm)*
G04 Created by KiCad (PCBNEW (5.0.0-rc2-dev-111-gc69db6c)) date Tuesday, March 20, 2018 at 12:35:28 AM*
%MOMM*%
%LPD*%
G01*
G04 APERTURE LIST*
%ADD10C,1.200000*%
%ADD11R,2.000000X1.270000*%
%ADD12R,1.270000X2.000000*%
%ADD13R,1.700000X1.700000*%
%ADD14O,1.700000X1.700000*%
%ADD15C,0.800000*%
%ADD16C,0.254000*%
G04 APERTURE END LIST*
D10*
X148700000Y-88700000D03*
X148760000Y-31310000D03*
X91300000Y-88700000D03*
X91300000Y-31300000D03*
D11*
X148840000Y-65030000D03*
X148840000Y-62490000D03*
X148840000Y-59950000D03*
X148840000Y-57410000D03*
X148840000Y-54870000D03*
D12*
X125080000Y-89000000D03*
X122540000Y-89000000D03*
X120000000Y-89000000D03*
X117460000Y-89000000D03*
X114920000Y-89000000D03*
D11*
X91000000Y-65080000D03*
X91000000Y-62540000D03*
X91000000Y-60000000D03*
X91000000Y-57460000D03*
X91000000Y-54920000D03*
D12*
X114920000Y-30950000D03*
X117460000Y-30950000D03*
X120000000Y-30950000D03*
X122540000Y-30950000D03*
X125080000Y-30950000D03*
D13*
X145160000Y-51110000D03*
D14*
X145160000Y-53650000D03*
X145160000Y-56190000D03*
X145160000Y-58730000D03*
X145160000Y-61270000D03*
X145160000Y-63810000D03*
X145160000Y-66350000D03*
X145160000Y-68890000D03*
X145160000Y-71430000D03*
X145160000Y-73970000D03*
X145160000Y-76510000D03*
X145160000Y-79050000D03*
X115160000Y-79050000D03*
X115160000Y-76510000D03*
X115160000Y-73970000D03*
X115160000Y-71430000D03*
X115160000Y-68890000D03*
X115160000Y-66350000D03*
X115160000Y-63810000D03*
X115160000Y-61270000D03*
X115160000Y-58730000D03*
X115160000Y-56190000D03*
X115160000Y-53650000D03*
D13*
X115160000Y-51110000D03*
X124840000Y-40950000D03*
D14*
X124840000Y-43490000D03*
X124840000Y-46030000D03*
X124840000Y-48570000D03*
X124840000Y-51110000D03*
X124840000Y-53650000D03*
X124840000Y-56190000D03*
X124840000Y-58730000D03*
X124840000Y-61270000D03*
X124840000Y-63810000D03*
X124840000Y-66350000D03*
X124840000Y-68890000D03*
X124840000Y-71430000D03*
X124840000Y-73970000D03*
X124840000Y-76510000D03*
X124840000Y-79050000D03*
X94840000Y-79050000D03*
X94840000Y-76510000D03*
X94840000Y-73970000D03*
X94840000Y-71430000D03*
X94840000Y-68890000D03*
X94840000Y-66350000D03*
X94840000Y-63810000D03*
X94840000Y-61270000D03*
X94840000Y-58730000D03*
X94840000Y-56190000D03*
X94840000Y-53650000D03*
X94840000Y-51110000D03*
X94840000Y-48570000D03*
X94840000Y-46030000D03*
X94840000Y-43490000D03*
D13*
X94840000Y-40950000D03*
D15*
X147660000Y-52110000D03*
X91860000Y-49110000D03*
X119920582Y-33228990D03*
X119960000Y-87210000D03*
X91560000Y-52110000D03*
X148360000Y-70610000D03*
X148960000Y-51610000D03*
X147060000Y-77210000D03*
X93160000Y-64210000D03*
X119460000Y-79110000D03*
X92360000Y-68510000D03*
X128360000Y-89210000D03*
X147460000Y-69210000D03*
X123860000Y-87410000D03*
X91560000Y-56209002D03*
X118860000Y-76510000D03*
X148560000Y-56159002D03*
X147960000Y-85510000D03*
X146460000Y-87010000D03*
X120460000Y-82010000D03*
X117860000Y-82010000D03*
X111360000Y-30729012D03*
X116160000Y-32310000D03*
X117960000Y-34510000D03*
X122460000Y-34910000D03*
X118260000Y-56210000D03*
X121627006Y-37010028D03*
X117259998Y-36910000D03*
X116987996Y-35798394D03*
X121960000Y-35910004D03*
D16*
X147260001Y-52509999D02*
X147660000Y-52110000D01*
X147160000Y-52610000D02*
X147260001Y-52509999D01*
X147160000Y-58635000D02*
X147160000Y-52610000D01*
X148475000Y-59950000D02*
X147160000Y-58635000D01*
X148840000Y-59950000D02*
X148475000Y-59950000D01*
X92760000Y-58605000D02*
X92760000Y-50010000D01*
X92760000Y-50010000D02*
X91860000Y-49110000D01*
X91000000Y-60000000D02*
X91365000Y-60000000D01*
X91365000Y-60000000D02*
X92760000Y-58605000D01*
X120000000Y-33149572D02*
X119920582Y-33228990D01*
X120000000Y-30950000D02*
X120000000Y-33149572D01*
X120000000Y-89000000D02*
X120000000Y-87250000D01*
X120000000Y-87250000D02*
X119960000Y-87210000D01*
X91000000Y-52670000D02*
X91160001Y-52509999D01*
X91000000Y-54920000D02*
X91000000Y-52670000D01*
X91160001Y-52509999D02*
X91560000Y-52110000D01*
X93160000Y-64210000D02*
X93160000Y-84250800D01*
X96214200Y-87305000D02*
X113146564Y-87305000D01*
X113146564Y-87305000D02*
X116009999Y-84441565D01*
X116009999Y-84441565D02*
X116009999Y-79899999D01*
X93160000Y-84250800D02*
X96214200Y-87305000D01*
X116009999Y-79899999D02*
X115160000Y-79050000D01*
X148360000Y-71175685D02*
X148360000Y-70610000D01*
X147060000Y-77210000D02*
X148360000Y-75910000D01*
X148360000Y-75910000D02*
X148360000Y-71175685D01*
X148840000Y-54870000D02*
X148840000Y-51730000D01*
X148840000Y-51730000D02*
X148960000Y-51610000D01*
X146009999Y-79899999D02*
X145160000Y-79050000D01*
X125961989Y-88118011D02*
X146507873Y-88118011D01*
X146009999Y-85404115D02*
X146009999Y-79899999D01*
X147241002Y-86635118D02*
X146009999Y-85404115D01*
X147241002Y-87384882D02*
X147241002Y-86635118D01*
X125080000Y-89000000D02*
X125961989Y-88118011D01*
X146507873Y-88118011D02*
X147241002Y-87384882D01*
X123962998Y-86628998D02*
X119678999Y-82344999D01*
X125080000Y-87474116D02*
X124234882Y-86628998D01*
X125080000Y-89000000D02*
X125080000Y-87474116D01*
X119678999Y-82344999D02*
X119678999Y-80309999D01*
X119678999Y-80309999D02*
X120178998Y-79810000D01*
X124234882Y-86628998D02*
X123962998Y-86628998D01*
X125080000Y-31315000D02*
X125080000Y-30950000D01*
X124063999Y-32331001D02*
X125080000Y-31315000D01*
X120178998Y-35992126D02*
X120173046Y-35986174D01*
X120173046Y-34841070D02*
X122683115Y-32331001D01*
X122683115Y-32331001D02*
X124063999Y-32331001D01*
X120178998Y-78410000D02*
X120178998Y-35992126D01*
X120173046Y-35986174D02*
X120173046Y-34841070D01*
X120178998Y-79810000D02*
X120178998Y-78410000D01*
X119460000Y-79110000D02*
X120160000Y-79810000D01*
X120160000Y-79810000D02*
X120178998Y-79810000D01*
X119460000Y-79110000D02*
X120160000Y-78410000D01*
X120160000Y-78410000D02*
X120178998Y-78410000D01*
X115160000Y-76510000D02*
X116760000Y-78110000D01*
X113260000Y-87910000D02*
X96060000Y-87910000D01*
X116760000Y-84410000D02*
X113260000Y-87910000D01*
X116760000Y-78110000D02*
X116760000Y-84410000D01*
X92360000Y-69075685D02*
X92360000Y-68510000D01*
X96060000Y-87910000D02*
X92360000Y-84210000D01*
X92360000Y-84210000D02*
X92360000Y-69075685D01*
X128925685Y-89210000D02*
X128360000Y-89210000D01*
X147749013Y-87595307D02*
X146134320Y-89210000D01*
X146960000Y-78310000D02*
X146960000Y-85635680D01*
X145160000Y-76510000D02*
X146960000Y-78310000D01*
X146960000Y-85635680D02*
X147749012Y-86424692D01*
X146134320Y-89210000D02*
X128925685Y-89210000D01*
X147749012Y-86424692D02*
X147749013Y-87595307D01*
X147460000Y-69775685D02*
X147460000Y-69210000D01*
X147460000Y-74210000D02*
X147460000Y-69775685D01*
X145160000Y-76510000D02*
X147460000Y-74210000D01*
X118678999Y-77991001D02*
X119560000Y-77110000D01*
X118678999Y-79484881D02*
X118678999Y-77991001D01*
X122540000Y-87746000D02*
X119170989Y-84376989D01*
X119170989Y-79976871D02*
X118678999Y-79484881D01*
X119170989Y-84376989D02*
X119170989Y-79976871D01*
X122540000Y-89000000D02*
X122540000Y-87746000D01*
X122540000Y-88730000D02*
X123860000Y-87410000D01*
X122540000Y-89000000D02*
X122540000Y-88730000D01*
X91560000Y-56209002D02*
X91560000Y-56900000D01*
X91560000Y-56900000D02*
X91000000Y-57460000D01*
X122540000Y-31315000D02*
X122540000Y-30950000D01*
X119560000Y-49969308D02*
X119665035Y-49864273D01*
X119665035Y-34630645D02*
X121651000Y-32644680D01*
X121651000Y-32204000D02*
X122540000Y-31315000D01*
X121651000Y-32644680D02*
X121651000Y-32204000D01*
X119665035Y-49864273D02*
X119665035Y-34630645D01*
X119560000Y-75810000D02*
X119560000Y-49969308D01*
X119560000Y-77110000D02*
X119560000Y-75810000D01*
X118860000Y-76510000D02*
X119460000Y-77110000D01*
X119460000Y-77110000D02*
X119560000Y-77110000D01*
X118860000Y-76510000D02*
X119259999Y-76110001D01*
X119259999Y-76110001D02*
X119560000Y-75810000D01*
X148840000Y-57410000D02*
X148840000Y-56439002D01*
X148840000Y-56439002D02*
X148560000Y-56159002D01*
X148475000Y-57410000D02*
X148840000Y-57410000D01*
X147960000Y-85510000D02*
X149241001Y-84228999D01*
X149241001Y-84228999D02*
X149241001Y-67474712D01*
X149241001Y-67474712D02*
X148116289Y-66350000D01*
X148116289Y-66350000D02*
X147840000Y-66350000D01*
X126060000Y-87610000D02*
X145860000Y-87610000D01*
X145860000Y-87610000D02*
X146460000Y-87010000D01*
X120460000Y-82010000D02*
X126060000Y-87610000D01*
X117570988Y-82010000D02*
X117570988Y-84799012D01*
X117570988Y-75924694D02*
X117570988Y-82010000D01*
X117570988Y-82010000D02*
X117860000Y-82010000D01*
X91000000Y-65969000D02*
X91000000Y-65080000D01*
X91000000Y-83568436D02*
X91000000Y-65969000D01*
X96431564Y-89000000D02*
X91000000Y-83568436D01*
X114920000Y-89000000D02*
X96431564Y-89000000D01*
X118460000Y-54854118D02*
X117478999Y-55835119D01*
X117478999Y-56584881D02*
X118460000Y-57565882D01*
X117478999Y-55835119D02*
X117478999Y-56584881D01*
X118007001Y-35291001D02*
X118624926Y-35908926D01*
X118624926Y-35908926D02*
X118624926Y-49467510D01*
X118460000Y-49632436D02*
X118460000Y-54854118D01*
X114920000Y-32625882D02*
X117585119Y-35291001D01*
X114920000Y-30950000D02*
X114920000Y-32625882D01*
X118460000Y-57565882D02*
X118460000Y-65491000D01*
X118460000Y-65491000D02*
X117601000Y-66350000D01*
X117585119Y-35291001D02*
X118007001Y-35291001D01*
X118624926Y-49467510D02*
X118460000Y-49632436D01*
X114920000Y-87746000D02*
X114920000Y-89000000D01*
X114920000Y-87450000D02*
X114920000Y-87746000D01*
X117601000Y-66350000D02*
X117601000Y-75894682D01*
X117601000Y-75894682D02*
X117570988Y-75924694D01*
X117570988Y-84799012D02*
X114920000Y-87450000D01*
X147840000Y-66350000D02*
X145160000Y-66350000D01*
X148840000Y-65030000D02*
X148840000Y-65919000D01*
X148840000Y-65919000D02*
X148409000Y-66350000D01*
X148409000Y-66350000D02*
X147840000Y-66350000D01*
X117601000Y-66350000D02*
X115160000Y-66350000D01*
X110794315Y-30729012D02*
X111360000Y-30729012D01*
X96640988Y-30729012D02*
X110794315Y-30729012D01*
X93360000Y-44610000D02*
X92160000Y-43410000D01*
X92160000Y-35210000D02*
X96640988Y-30729012D01*
X92160000Y-43410000D02*
X92160000Y-35210000D01*
X91365000Y-62540000D02*
X93360000Y-60545000D01*
X91000000Y-62540000D02*
X91365000Y-62540000D01*
X93360000Y-60545000D02*
X93360000Y-44610000D01*
X145160000Y-56190000D02*
X146460000Y-54890000D01*
X146460000Y-51810000D02*
X147860000Y-50410000D01*
X126048812Y-32301990D02*
X123440802Y-34910000D01*
X147860000Y-50410000D02*
X147860000Y-36391564D01*
X146460000Y-54890000D02*
X146460000Y-51810000D01*
X143770425Y-32301989D02*
X126048812Y-32301990D01*
X123440802Y-34910000D02*
X123025685Y-34910000D01*
X147860000Y-36391564D02*
X143770425Y-32301989D01*
X123025685Y-34910000D02*
X122460000Y-34910000D01*
X118109011Y-66560425D02*
X118968011Y-65701425D01*
X117460000Y-85628434D02*
X118641002Y-84447432D01*
X118078999Y-76135119D02*
X118109010Y-76105108D01*
X118968011Y-65701425D02*
X118968011Y-56210000D01*
X118641002Y-81635118D02*
X118078999Y-81073115D01*
X118109010Y-76105108D02*
X118109011Y-66560425D01*
X118078999Y-81073115D02*
X118078999Y-76135119D01*
X118641002Y-84447432D02*
X118641002Y-81635118D01*
X117460000Y-89000000D02*
X117460000Y-85628434D01*
X117460000Y-30950000D02*
X117460000Y-33810000D01*
X117460000Y-33810000D02*
X117460000Y-34010000D01*
X116160000Y-32310000D02*
X117460000Y-33610000D01*
X117460000Y-33610000D02*
X117460000Y-33810000D01*
X145160000Y-56190000D02*
X145160000Y-55610000D01*
X119157024Y-36521878D02*
X119157024Y-35707024D01*
X119157024Y-35707024D02*
X118359999Y-34909999D01*
X117460000Y-34010000D02*
X117560001Y-34110001D01*
X117560001Y-34110001D02*
X117960000Y-34510000D01*
X118359999Y-34909999D02*
X117960000Y-34510000D01*
X117460000Y-31315000D02*
X117460000Y-30950000D01*
X119157024Y-36521878D02*
X119132926Y-36497778D01*
X118968011Y-56210000D02*
X118968011Y-49842861D01*
X119157024Y-49653848D02*
X119157024Y-36521878D01*
X118968011Y-49842861D02*
X119157024Y-49653848D01*
X118260000Y-56210000D02*
X118968011Y-56210000D01*
X148840000Y-62490000D02*
X147586000Y-62490000D01*
X147586000Y-62490000D02*
X146391001Y-61295001D01*
X146391001Y-61295001D02*
X146391001Y-57421001D01*
X146391001Y-57421001D02*
X146009999Y-57039999D01*
X146009999Y-57039999D02*
X145160000Y-56190000D01*
X116206995Y-35856997D02*
X116206995Y-36422682D01*
X95884000Y-32695000D02*
X113044998Y-32695000D01*
X94840000Y-43490000D02*
X92963000Y-41613000D01*
X116694313Y-36910000D02*
X117259998Y-36910000D01*
X116206995Y-36422682D02*
X116694313Y-36910000D01*
X113044998Y-32695000D02*
X116206995Y-35856997D01*
X92963000Y-41613000D02*
X92963000Y-35616000D01*
X92963000Y-35616000D02*
X95884000Y-32695000D01*
X121627006Y-37575713D02*
X121627006Y-37010028D01*
X124840000Y-43490000D02*
X121627006Y-40277006D01*
X121627006Y-40277006D02*
X121627006Y-37575713D01*
X145160000Y-51110000D02*
X146264000Y-51110000D01*
X122525685Y-35910004D02*
X121960000Y-35910004D01*
X146264000Y-51110000D02*
X146886010Y-50487990D01*
X146886010Y-50487990D02*
X146886010Y-36136010D01*
X146886010Y-36136010D02*
X143560000Y-32810000D01*
X143560000Y-32810000D02*
X126259238Y-32810000D01*
X126259238Y-32810000D02*
X123159234Y-35910004D01*
X123159234Y-35910004D02*
X122525685Y-35910004D01*
X115160000Y-51110000D02*
X116264000Y-51110000D01*
X118116890Y-49257110D02*
X118116890Y-36361603D01*
X116264000Y-51110000D02*
X118116890Y-49257110D01*
X118116890Y-36361603D02*
X117553681Y-35798394D01*
X117553681Y-35798394D02*
X116987996Y-35798394D01*
G36*
X121732569Y-87656990D02*
X121630314Y-87725314D01*
X121546106Y-87851341D01*
X121516536Y-88000000D01*
X121516536Y-89544000D01*
X121270000Y-89544000D01*
X121270000Y-89285750D01*
X121111250Y-89127000D01*
X120127000Y-89127000D01*
X120127000Y-89147000D01*
X119873000Y-89147000D01*
X119873000Y-89127000D01*
X118888750Y-89127000D01*
X118730000Y-89285750D01*
X118730000Y-89544000D01*
X118483464Y-89544000D01*
X118483464Y-88000000D01*
X118458340Y-87873691D01*
X118730000Y-87873691D01*
X118730000Y-88714250D01*
X118888750Y-88873000D01*
X119873000Y-88873000D01*
X119873000Y-87523750D01*
X120127000Y-87523750D01*
X120127000Y-88873000D01*
X121111250Y-88873000D01*
X121270000Y-88714250D01*
X121270000Y-87873691D01*
X121173327Y-87640302D01*
X120994699Y-87461673D01*
X120761310Y-87365000D01*
X120285750Y-87365000D01*
X120127000Y-87523750D01*
X119873000Y-87523750D01*
X119714250Y-87365000D01*
X119238690Y-87365000D01*
X119005301Y-87461673D01*
X118826673Y-87640302D01*
X118730000Y-87873691D01*
X118458340Y-87873691D01*
X118453894Y-87851341D01*
X118369686Y-87725314D01*
X118243659Y-87641106D01*
X118095000Y-87611536D01*
X117968000Y-87611536D01*
X117968000Y-85838854D01*
X118941217Y-84865637D01*
X121732569Y-87656990D01*
X121732569Y-87656990D01*
G37*
X121732569Y-87656990D02*
X121630314Y-87725314D01*
X121546106Y-87851341D01*
X121516536Y-88000000D01*
X121516536Y-89544000D01*
X121270000Y-89544000D01*
X121270000Y-89285750D01*
X121111250Y-89127000D01*
X120127000Y-89127000D01*
X120127000Y-89147000D01*
X119873000Y-89147000D01*
X119873000Y-89127000D01*
X118888750Y-89127000D01*
X118730000Y-89285750D01*
X118730000Y-89544000D01*
X118483464Y-89544000D01*
X118483464Y-88000000D01*
X118458340Y-87873691D01*
X118730000Y-87873691D01*
X118730000Y-88714250D01*
X118888750Y-88873000D01*
X119873000Y-88873000D01*
X119873000Y-87523750D01*
X120127000Y-87523750D01*
X120127000Y-88873000D01*
X121111250Y-88873000D01*
X121270000Y-88714250D01*
X121270000Y-87873691D01*
X121173327Y-87640302D01*
X120994699Y-87461673D01*
X120761310Y-87365000D01*
X120285750Y-87365000D01*
X120127000Y-87523750D01*
X119873000Y-87523750D01*
X119714250Y-87365000D01*
X119238690Y-87365000D01*
X119005301Y-87461673D01*
X118826673Y-87640302D01*
X118730000Y-87873691D01*
X118458340Y-87873691D01*
X118453894Y-87851341D01*
X118369686Y-87725314D01*
X118243659Y-87641106D01*
X118095000Y-87611536D01*
X117968000Y-87611536D01*
X117968000Y-85838854D01*
X118941217Y-84865637D01*
X121732569Y-87656990D01*
G36*
X123230382Y-34402000D02*
X123056501Y-34402000D01*
X122902401Y-34247900D01*
X122615351Y-34129000D01*
X122304649Y-34129000D01*
X122017599Y-34247900D01*
X121797900Y-34467599D01*
X121679000Y-34754649D01*
X121679000Y-35065351D01*
X121719906Y-35164106D01*
X121517599Y-35247904D01*
X121297900Y-35467603D01*
X121179000Y-35754653D01*
X121179000Y-36065355D01*
X121279725Y-36308528D01*
X121184605Y-36347928D01*
X120964906Y-36567627D01*
X120846006Y-36854677D01*
X120846006Y-37165379D01*
X120964906Y-37452429D01*
X121119006Y-37606529D01*
X121119006Y-37625744D01*
X121119007Y-37625749D01*
X121119006Y-40226978D01*
X121109055Y-40277006D01*
X121119006Y-40327034D01*
X121119006Y-40327037D01*
X121148481Y-40475217D01*
X121260759Y-40643253D01*
X121303174Y-40671594D01*
X123673927Y-43042348D01*
X123584884Y-43490000D01*
X123680424Y-43970312D01*
X123952499Y-44377501D01*
X124359688Y-44649576D01*
X124718761Y-44721000D01*
X124961239Y-44721000D01*
X125320312Y-44649576D01*
X125654001Y-44426612D01*
X125654001Y-45093388D01*
X125320312Y-44870424D01*
X124961239Y-44799000D01*
X124718761Y-44799000D01*
X124359688Y-44870424D01*
X123952499Y-45142499D01*
X123680424Y-45549688D01*
X123584884Y-46030000D01*
X123680424Y-46510312D01*
X123952499Y-46917501D01*
X124356963Y-47187755D01*
X123958642Y-47374817D01*
X123568355Y-47803076D01*
X123398524Y-48213110D01*
X123519845Y-48443000D01*
X124713000Y-48443000D01*
X124713000Y-48423000D01*
X124967000Y-48423000D01*
X124967000Y-48443000D01*
X124987000Y-48443000D01*
X124987000Y-48697000D01*
X124967000Y-48697000D01*
X124967000Y-48717000D01*
X124713000Y-48717000D01*
X124713000Y-48697000D01*
X123519845Y-48697000D01*
X123398524Y-48926890D01*
X123568355Y-49336924D01*
X123958642Y-49765183D01*
X124356963Y-49952245D01*
X123952499Y-50222499D01*
X123680424Y-50629688D01*
X123584884Y-51110000D01*
X123680424Y-51590312D01*
X123952499Y-51997501D01*
X124359688Y-52269576D01*
X124718761Y-52341000D01*
X124961239Y-52341000D01*
X125320312Y-52269576D01*
X125654001Y-52046612D01*
X125654001Y-52713388D01*
X125320312Y-52490424D01*
X124961239Y-52419000D01*
X124718761Y-52419000D01*
X124359688Y-52490424D01*
X123952499Y-52762499D01*
X123680424Y-53169688D01*
X123584884Y-53650000D01*
X123680424Y-54130312D01*
X123952499Y-54537501D01*
X124359688Y-54809576D01*
X124718761Y-54881000D01*
X124961239Y-54881000D01*
X125320312Y-54809576D01*
X125654001Y-54586612D01*
X125654001Y-55253388D01*
X125320312Y-55030424D01*
X124961239Y-54959000D01*
X124718761Y-54959000D01*
X124359688Y-55030424D01*
X123952499Y-55302499D01*
X123680424Y-55709688D01*
X123584884Y-56190000D01*
X123680424Y-56670312D01*
X123952499Y-57077501D01*
X124359688Y-57349576D01*
X124718761Y-57421000D01*
X124961239Y-57421000D01*
X125320312Y-57349576D01*
X125654001Y-57126612D01*
X125654001Y-57793388D01*
X125320312Y-57570424D01*
X124961239Y-57499000D01*
X124718761Y-57499000D01*
X124359688Y-57570424D01*
X123952499Y-57842499D01*
X123680424Y-58249688D01*
X123584884Y-58730000D01*
X123680424Y-59210312D01*
X123952499Y-59617501D01*
X124359688Y-59889576D01*
X124718761Y-59961000D01*
X124961239Y-59961000D01*
X125320312Y-59889576D01*
X125654001Y-59666612D01*
X125654000Y-60333388D01*
X125320312Y-60110424D01*
X124961239Y-60039000D01*
X124718761Y-60039000D01*
X124359688Y-60110424D01*
X123952499Y-60382499D01*
X123680424Y-60789688D01*
X123584884Y-61270000D01*
X123680424Y-61750312D01*
X123952499Y-62157501D01*
X124359688Y-62429576D01*
X124718761Y-62501000D01*
X124961239Y-62501000D01*
X125320312Y-62429576D01*
X125654000Y-62206613D01*
X125654000Y-62873387D01*
X125320312Y-62650424D01*
X124961239Y-62579000D01*
X124718761Y-62579000D01*
X124359688Y-62650424D01*
X123952499Y-62922499D01*
X123680424Y-63329688D01*
X123584884Y-63810000D01*
X123680424Y-64290312D01*
X123952499Y-64697501D01*
X124359688Y-64969576D01*
X124718761Y-65041000D01*
X124961239Y-65041000D01*
X125320312Y-64969576D01*
X125654000Y-64746613D01*
X125654000Y-65413387D01*
X125320312Y-65190424D01*
X124961239Y-65119000D01*
X124718761Y-65119000D01*
X124359688Y-65190424D01*
X123952499Y-65462499D01*
X123680424Y-65869688D01*
X123584884Y-66350000D01*
X123680424Y-66830312D01*
X123952499Y-67237501D01*
X124359688Y-67509576D01*
X124718761Y-67581000D01*
X124961239Y-67581000D01*
X125320312Y-67509576D01*
X125654000Y-67286613D01*
X125654000Y-67953387D01*
X125320312Y-67730424D01*
X124961239Y-67659000D01*
X124718761Y-67659000D01*
X124359688Y-67730424D01*
X123952499Y-68002499D01*
X123680424Y-68409688D01*
X123584884Y-68890000D01*
X123680424Y-69370312D01*
X123952499Y-69777501D01*
X124359688Y-70049576D01*
X124718761Y-70121000D01*
X124961239Y-70121000D01*
X125320312Y-70049576D01*
X125654000Y-69826613D01*
X125654000Y-70493387D01*
X125320312Y-70270424D01*
X124961239Y-70199000D01*
X124718761Y-70199000D01*
X124359688Y-70270424D01*
X123952499Y-70542499D01*
X123680424Y-70949688D01*
X123584884Y-71430000D01*
X123680424Y-71910312D01*
X123952499Y-72317501D01*
X124359688Y-72589576D01*
X124718761Y-72661000D01*
X124961239Y-72661000D01*
X125320312Y-72589576D01*
X125654000Y-72366613D01*
X125654000Y-73033387D01*
X125320312Y-72810424D01*
X124961239Y-72739000D01*
X124718761Y-72739000D01*
X124359688Y-72810424D01*
X123952499Y-73082499D01*
X123680424Y-73489688D01*
X123584884Y-73970000D01*
X123680424Y-74450312D01*
X123952499Y-74857501D01*
X124359688Y-75129576D01*
X124718761Y-75201000D01*
X124961239Y-75201000D01*
X125320312Y-75129576D01*
X125654000Y-74906613D01*
X125654000Y-75573387D01*
X125320312Y-75350424D01*
X124961239Y-75279000D01*
X124718761Y-75279000D01*
X124359688Y-75350424D01*
X123952499Y-75622499D01*
X123680424Y-76029688D01*
X123584884Y-76510000D01*
X123680424Y-76990312D01*
X123952499Y-77397501D01*
X124359688Y-77669576D01*
X124718761Y-77741000D01*
X124961239Y-77741000D01*
X125320312Y-77669576D01*
X125654000Y-77446613D01*
X125654000Y-78113387D01*
X125320312Y-77890424D01*
X124961239Y-77819000D01*
X124718761Y-77819000D01*
X124359688Y-77890424D01*
X123952499Y-78162499D01*
X123680424Y-78569688D01*
X123584884Y-79050000D01*
X123680424Y-79530312D01*
X123952499Y-79937501D01*
X124359688Y-80209576D01*
X124718761Y-80281000D01*
X124961239Y-80281000D01*
X125320312Y-80209576D01*
X125654000Y-79986613D01*
X125654000Y-80275091D01*
X125645067Y-80320000D01*
X125680458Y-80497922D01*
X125718706Y-80555164D01*
X125781243Y-80648757D01*
X125932078Y-80749542D01*
X126110000Y-80784933D01*
X126154909Y-80776000D01*
X128194001Y-80776000D01*
X128194000Y-86555091D01*
X128185067Y-86600000D01*
X128220458Y-86777922D01*
X128304177Y-86903216D01*
X128321243Y-86928757D01*
X128472078Y-87029542D01*
X128650000Y-87064933D01*
X128694909Y-87056000D01*
X141305091Y-87056000D01*
X141350000Y-87064933D01*
X141394909Y-87056000D01*
X141527922Y-87029542D01*
X141678757Y-86928757D01*
X141779542Y-86777922D01*
X141814933Y-86600000D01*
X141806000Y-86555091D01*
X141806000Y-80776000D01*
X143845091Y-80776000D01*
X143890000Y-80784933D01*
X143934909Y-80776000D01*
X144067922Y-80749542D01*
X144218757Y-80648757D01*
X144319542Y-80497922D01*
X144354933Y-80320000D01*
X144346000Y-80275091D01*
X144346000Y-79986613D01*
X144679688Y-80209576D01*
X145038761Y-80281000D01*
X145281239Y-80281000D01*
X145502000Y-80237088D01*
X145502000Y-82489703D01*
X145272695Y-81936113D01*
X144813887Y-81477305D01*
X144214426Y-81229000D01*
X143565574Y-81229000D01*
X142966113Y-81477305D01*
X142507305Y-81936113D01*
X142259000Y-82535574D01*
X142259000Y-83184426D01*
X142507305Y-83783887D01*
X142966113Y-84242695D01*
X143565574Y-84491000D01*
X144214426Y-84491000D01*
X144813887Y-84242695D01*
X145272695Y-83783887D01*
X145501999Y-83230298D01*
X145501999Y-85354087D01*
X145492048Y-85404115D01*
X145501999Y-85454143D01*
X145501999Y-85454146D01*
X145531474Y-85602326D01*
X145643752Y-85770362D01*
X145686167Y-85798703D01*
X146171582Y-86284118D01*
X146017599Y-86347900D01*
X145797900Y-86567599D01*
X145679000Y-86854649D01*
X145679000Y-87072580D01*
X145649580Y-87102000D01*
X126270421Y-87102000D01*
X121703995Y-82535574D01*
X124479000Y-82535574D01*
X124479000Y-83184426D01*
X124727305Y-83783887D01*
X125186113Y-84242695D01*
X125785574Y-84491000D01*
X126434426Y-84491000D01*
X127033887Y-84242695D01*
X127492695Y-83783887D01*
X127741000Y-83184426D01*
X127741000Y-82535574D01*
X127492695Y-81936113D01*
X127033887Y-81477305D01*
X126434426Y-81229000D01*
X125785574Y-81229000D01*
X125186113Y-81477305D01*
X124727305Y-81936113D01*
X124479000Y-82535574D01*
X121703995Y-82535574D01*
X121241000Y-82072580D01*
X121241000Y-81854649D01*
X121122100Y-81567599D01*
X120902401Y-81347900D01*
X120615351Y-81229000D01*
X120304649Y-81229000D01*
X120186999Y-81277732D01*
X120186999Y-80520419D01*
X120502831Y-80204587D01*
X120545245Y-80176247D01*
X120657523Y-80008212D01*
X120696950Y-79810000D01*
X120686998Y-79759968D01*
X120686998Y-78460031D01*
X120696950Y-78410000D01*
X120686998Y-78359968D01*
X120686998Y-36042153D01*
X120696949Y-35992125D01*
X120686998Y-35942097D01*
X120686998Y-35942094D01*
X120681046Y-35912171D01*
X120681046Y-35051490D01*
X122893536Y-32839001D01*
X124013971Y-32839001D01*
X124063999Y-32848952D01*
X124114027Y-32839001D01*
X124114031Y-32839001D01*
X124262211Y-32809526D01*
X124430246Y-32697248D01*
X124458587Y-32654833D01*
X124774956Y-32338464D01*
X125293917Y-32338464D01*
X123230382Y-34402000D01*
X123230382Y-34402000D01*
G37*
X123230382Y-34402000D02*
X123056501Y-34402000D01*
X122902401Y-34247900D01*
X122615351Y-34129000D01*
X122304649Y-34129000D01*
X122017599Y-34247900D01*
X121797900Y-34467599D01*
X121679000Y-34754649D01*
X121679000Y-35065351D01*
X121719906Y-35164106D01*
X121517599Y-35247904D01*
X121297900Y-35467603D01*
X121179000Y-35754653D01*
X121179000Y-36065355D01*
X121279725Y-36308528D01*
X121184605Y-36347928D01*
X120964906Y-36567627D01*
X120846006Y-36854677D01*
X120846006Y-37165379D01*
X120964906Y-37452429D01*
X121119006Y-37606529D01*
X121119006Y-37625744D01*
X121119007Y-37625749D01*
X121119006Y-40226978D01*
X121109055Y-40277006D01*
X121119006Y-40327034D01*
X121119006Y-40327037D01*
X121148481Y-40475217D01*
X121260759Y-40643253D01*
X121303174Y-40671594D01*
X123673927Y-43042348D01*
X123584884Y-43490000D01*
X123680424Y-43970312D01*
X123952499Y-44377501D01*
X124359688Y-44649576D01*
X124718761Y-44721000D01*
X124961239Y-44721000D01*
X125320312Y-44649576D01*
X125654001Y-44426612D01*
X125654001Y-45093388D01*
X125320312Y-44870424D01*
X124961239Y-44799000D01*
X124718761Y-44799000D01*
X124359688Y-44870424D01*
X123952499Y-45142499D01*
X123680424Y-45549688D01*
X123584884Y-46030000D01*
X123680424Y-46510312D01*
X123952499Y-46917501D01*
X124356963Y-47187755D01*
X123958642Y-47374817D01*
X123568355Y-47803076D01*
X123398524Y-48213110D01*
X123519845Y-48443000D01*
X124713000Y-48443000D01*
X124713000Y-48423000D01*
X124967000Y-48423000D01*
X124967000Y-48443000D01*
X124987000Y-48443000D01*
X124987000Y-48697000D01*
X124967000Y-48697000D01*
X124967000Y-48717000D01*
X124713000Y-48717000D01*
X124713000Y-48697000D01*
X123519845Y-48697000D01*
X123398524Y-48926890D01*
X123568355Y-49336924D01*
X123958642Y-49765183D01*
X124356963Y-49952245D01*
X123952499Y-50222499D01*
X123680424Y-50629688D01*
X123584884Y-51110000D01*
X123680424Y-51590312D01*
X123952499Y-51997501D01*
X124359688Y-52269576D01*
X124718761Y-52341000D01*
X124961239Y-52341000D01*
X125320312Y-52269576D01*
X125654001Y-52046612D01*
X125654001Y-52713388D01*
X125320312Y-52490424D01*
X124961239Y-52419000D01*
X124718761Y-52419000D01*
X124359688Y-52490424D01*
X123952499Y-52762499D01*
X123680424Y-53169688D01*
X123584884Y-53650000D01*
X123680424Y-54130312D01*
X123952499Y-54537501D01*
X124359688Y-54809576D01*
X124718761Y-54881000D01*
X124961239Y-54881000D01*
X125320312Y-54809576D01*
X125654001Y-54586612D01*
X125654001Y-55253388D01*
X125320312Y-55030424D01*
X124961239Y-54959000D01*
X124718761Y-54959000D01*
X124359688Y-55030424D01*
X123952499Y-55302499D01*
X123680424Y-55709688D01*
X123584884Y-56190000D01*
X123680424Y-56670312D01*
X123952499Y-57077501D01*
X124359688Y-57349576D01*
X124718761Y-57421000D01*
X124961239Y-57421000D01*
X125320312Y-57349576D01*
X125654001Y-57126612D01*
X125654001Y-57793388D01*
X125320312Y-57570424D01*
X124961239Y-57499000D01*
X124718761Y-57499000D01*
X124359688Y-57570424D01*
X123952499Y-57842499D01*
X123680424Y-58249688D01*
X123584884Y-58730000D01*
X123680424Y-59210312D01*
X123952499Y-59617501D01*
X124359688Y-59889576D01*
X124718761Y-59961000D01*
X124961239Y-59961000D01*
X125320312Y-59889576D01*
X125654001Y-59666612D01*
X125654000Y-60333388D01*
X125320312Y-60110424D01*
X124961239Y-60039000D01*
X124718761Y-60039000D01*
X124359688Y-60110424D01*
X123952499Y-60382499D01*
X123680424Y-60789688D01*
X123584884Y-61270000D01*
X123680424Y-61750312D01*
X123952499Y-62157501D01*
X124359688Y-62429576D01*
X124718761Y-62501000D01*
X124961239Y-62501000D01*
X125320312Y-62429576D01*
X125654000Y-62206613D01*
X125654000Y-62873387D01*
X125320312Y-62650424D01*
X124961239Y-62579000D01*
X124718761Y-62579000D01*
X124359688Y-62650424D01*
X123952499Y-62922499D01*
X123680424Y-63329688D01*
X123584884Y-63810000D01*
X123680424Y-64290312D01*
X123952499Y-64697501D01*
X124359688Y-64969576D01*
X124718761Y-65041000D01*
X124961239Y-65041000D01*
X125320312Y-64969576D01*
X125654000Y-64746613D01*
X125654000Y-65413387D01*
X125320312Y-65190424D01*
X124961239Y-65119000D01*
X124718761Y-65119000D01*
X124359688Y-65190424D01*
X123952499Y-65462499D01*
X123680424Y-65869688D01*
X123584884Y-66350000D01*
X123680424Y-66830312D01*
X123952499Y-67237501D01*
X124359688Y-67509576D01*
X124718761Y-67581000D01*
X124961239Y-67581000D01*
X125320312Y-67509576D01*
X125654000Y-67286613D01*
X125654000Y-67953387D01*
X125320312Y-67730424D01*
X124961239Y-67659000D01*
X124718761Y-67659000D01*
X124359688Y-67730424D01*
X123952499Y-68002499D01*
X123680424Y-68409688D01*
X123584884Y-68890000D01*
X123680424Y-69370312D01*
X123952499Y-69777501D01*
X124359688Y-70049576D01*
X124718761Y-70121000D01*
X124961239Y-70121000D01*
X125320312Y-70049576D01*
X125654000Y-69826613D01*
X125654000Y-70493387D01*
X125320312Y-70270424D01*
X124961239Y-70199000D01*
X124718761Y-70199000D01*
X124359688Y-70270424D01*
X123952499Y-70542499D01*
X123680424Y-70949688D01*
X123584884Y-71430000D01*
X123680424Y-71910312D01*
X123952499Y-72317501D01*
X124359688Y-72589576D01*
X124718761Y-72661000D01*
X124961239Y-72661000D01*
X125320312Y-72589576D01*
X125654000Y-72366613D01*
X125654000Y-73033387D01*
X125320312Y-72810424D01*
X124961239Y-72739000D01*
X124718761Y-72739000D01*
X124359688Y-72810424D01*
X123952499Y-73082499D01*
X123680424Y-73489688D01*
X123584884Y-73970000D01*
X123680424Y-74450312D01*
X123952499Y-74857501D01*
X124359688Y-75129576D01*
X124718761Y-75201000D01*
X124961239Y-75201000D01*
X125320312Y-75129576D01*
X125654000Y-74906613D01*
X125654000Y-75573387D01*
X125320312Y-75350424D01*
X124961239Y-75279000D01*
X124718761Y-75279000D01*
X124359688Y-75350424D01*
X123952499Y-75622499D01*
X123680424Y-76029688D01*
X123584884Y-76510000D01*
X123680424Y-76990312D01*
X123952499Y-77397501D01*
X124359688Y-77669576D01*
X124718761Y-77741000D01*
X124961239Y-77741000D01*
X125320312Y-77669576D01*
X125654000Y-77446613D01*
X125654000Y-78113387D01*
X125320312Y-77890424D01*
X124961239Y-77819000D01*
X124718761Y-77819000D01*
X124359688Y-77890424D01*
X123952499Y-78162499D01*
X123680424Y-78569688D01*
X123584884Y-79050000D01*
X123680424Y-79530312D01*
X123952499Y-79937501D01*
X124359688Y-80209576D01*
X124718761Y-80281000D01*
X124961239Y-80281000D01*
X125320312Y-80209576D01*
X125654000Y-79986613D01*
X125654000Y-80275091D01*
X125645067Y-80320000D01*
X125680458Y-80497922D01*
X125718706Y-80555164D01*
X125781243Y-80648757D01*
X125932078Y-80749542D01*
X126110000Y-80784933D01*
X126154909Y-80776000D01*
X128194001Y-80776000D01*
X128194000Y-86555091D01*
X128185067Y-86600000D01*
X128220458Y-86777922D01*
X128304177Y-86903216D01*
X128321243Y-86928757D01*
X128472078Y-87029542D01*
X128650000Y-87064933D01*
X128694909Y-87056000D01*
X141305091Y-87056000D01*
X141350000Y-87064933D01*
X141394909Y-87056000D01*
X141527922Y-87029542D01*
X141678757Y-86928757D01*
X141779542Y-86777922D01*
X141814933Y-86600000D01*
X141806000Y-86555091D01*
X141806000Y-80776000D01*
X143845091Y-80776000D01*
X143890000Y-80784933D01*
X143934909Y-80776000D01*
X144067922Y-80749542D01*
X144218757Y-80648757D01*
X144319542Y-80497922D01*
X144354933Y-80320000D01*
X144346000Y-80275091D01*
X144346000Y-79986613D01*
X144679688Y-80209576D01*
X145038761Y-80281000D01*
X145281239Y-80281000D01*
X145502000Y-80237088D01*
X145502000Y-82489703D01*
X145272695Y-81936113D01*
X144813887Y-81477305D01*
X144214426Y-81229000D01*
X143565574Y-81229000D01*
X142966113Y-81477305D01*
X142507305Y-81936113D01*
X142259000Y-82535574D01*
X142259000Y-83184426D01*
X142507305Y-83783887D01*
X142966113Y-84242695D01*
X143565574Y-84491000D01*
X144214426Y-84491000D01*
X144813887Y-84242695D01*
X145272695Y-83783887D01*
X145501999Y-83230298D01*
X145501999Y-85354087D01*
X145492048Y-85404115D01*
X145501999Y-85454143D01*
X145501999Y-85454146D01*
X145531474Y-85602326D01*
X145643752Y-85770362D01*
X145686167Y-85798703D01*
X146171582Y-86284118D01*
X146017599Y-86347900D01*
X145797900Y-86567599D01*
X145679000Y-86854649D01*
X145679000Y-87072580D01*
X145649580Y-87102000D01*
X126270421Y-87102000D01*
X121703995Y-82535574D01*
X124479000Y-82535574D01*
X124479000Y-83184426D01*
X124727305Y-83783887D01*
X125186113Y-84242695D01*
X125785574Y-84491000D01*
X126434426Y-84491000D01*
X127033887Y-84242695D01*
X127492695Y-83783887D01*
X127741000Y-83184426D01*
X127741000Y-82535574D01*
X127492695Y-81936113D01*
X127033887Y-81477305D01*
X126434426Y-81229000D01*
X125785574Y-81229000D01*
X125186113Y-81477305D01*
X124727305Y-81936113D01*
X124479000Y-82535574D01*
X121703995Y-82535574D01*
X121241000Y-82072580D01*
X121241000Y-81854649D01*
X121122100Y-81567599D01*
X120902401Y-81347900D01*
X120615351Y-81229000D01*
X120304649Y-81229000D01*
X120186999Y-81277732D01*
X120186999Y-80520419D01*
X120502831Y-80204587D01*
X120545245Y-80176247D01*
X120657523Y-80008212D01*
X120696950Y-79810000D01*
X120686998Y-79759968D01*
X120686998Y-78460031D01*
X120696950Y-78410000D01*
X120686998Y-78359968D01*
X120686998Y-36042153D01*
X120696949Y-35992125D01*
X120686998Y-35942097D01*
X120686998Y-35942094D01*
X120681046Y-35912171D01*
X120681046Y-35051490D01*
X122893536Y-32839001D01*
X124013971Y-32839001D01*
X124063999Y-32848952D01*
X124114027Y-32839001D01*
X124114031Y-32839001D01*
X124262211Y-32809526D01*
X124430246Y-32697248D01*
X124458587Y-32654833D01*
X124774956Y-32338464D01*
X125293917Y-32338464D01*
X123230382Y-34402000D01*
G36*
X148144308Y-30468348D02*
X147868348Y-30744308D01*
X147719000Y-31104867D01*
X147719000Y-31495133D01*
X147868348Y-31855692D01*
X148144308Y-32131652D01*
X148504867Y-32281000D01*
X148895133Y-32281000D01*
X149255692Y-32131652D01*
X149531652Y-31855692D01*
X149544001Y-31825879D01*
X149544001Y-51089500D01*
X149402401Y-50947900D01*
X149115351Y-50829000D01*
X148804649Y-50829000D01*
X148517599Y-50947900D01*
X148297900Y-51167599D01*
X148179000Y-51454649D01*
X148179000Y-51765351D01*
X148297900Y-52052401D01*
X148332001Y-52086502D01*
X148332000Y-53846536D01*
X147840000Y-53846536D01*
X147691341Y-53876106D01*
X147565314Y-53960314D01*
X147481106Y-54086341D01*
X147451536Y-54235000D01*
X147451536Y-55505000D01*
X147481106Y-55653659D01*
X147565314Y-55779686D01*
X147691341Y-55863894D01*
X147825810Y-55890641D01*
X147779000Y-56003651D01*
X147779000Y-56314353D01*
X147811267Y-56392251D01*
X147691341Y-56416106D01*
X147565314Y-56500314D01*
X147481106Y-56626341D01*
X147451536Y-56775000D01*
X147451536Y-58045000D01*
X147481106Y-58193659D01*
X147565314Y-58319686D01*
X147691341Y-58403894D01*
X147840000Y-58433464D01*
X149544001Y-58433464D01*
X149544001Y-58680000D01*
X149125750Y-58680000D01*
X148967000Y-58838750D01*
X148967000Y-59823000D01*
X148987000Y-59823000D01*
X148987000Y-60077000D01*
X148967000Y-60077000D01*
X148967000Y-61061250D01*
X149125750Y-61220000D01*
X149544000Y-61220000D01*
X149544000Y-61466536D01*
X147840000Y-61466536D01*
X147691341Y-61496106D01*
X147565314Y-61580314D01*
X147496990Y-61682569D01*
X146899001Y-61084581D01*
X146899001Y-60235750D01*
X147205000Y-60235750D01*
X147205000Y-60711310D01*
X147301673Y-60944699D01*
X147480302Y-61123327D01*
X147713691Y-61220000D01*
X148554250Y-61220000D01*
X148713000Y-61061250D01*
X148713000Y-60077000D01*
X147363750Y-60077000D01*
X147205000Y-60235750D01*
X146899001Y-60235750D01*
X146899001Y-59188690D01*
X147205000Y-59188690D01*
X147205000Y-59664250D01*
X147363750Y-59823000D01*
X148713000Y-59823000D01*
X148713000Y-58838750D01*
X148554250Y-58680000D01*
X147713691Y-58680000D01*
X147480302Y-58776673D01*
X147301673Y-58955301D01*
X147205000Y-59188690D01*
X146899001Y-59188690D01*
X146899001Y-57471028D01*
X146908952Y-57421000D01*
X146899001Y-57370972D01*
X146899001Y-57370969D01*
X146869526Y-57222789D01*
X146854055Y-57199635D01*
X146785589Y-57097168D01*
X146785587Y-57097166D01*
X146757248Y-57054754D01*
X146714836Y-57026415D01*
X146404589Y-56716169D01*
X146404587Y-56716166D01*
X146326073Y-56637652D01*
X146415116Y-56190000D01*
X146326073Y-55742348D01*
X146783836Y-55284585D01*
X146826247Y-55256247D01*
X146854586Y-55213835D01*
X146854588Y-55213833D01*
X146909617Y-55131475D01*
X146938525Y-55088212D01*
X146968000Y-54940032D01*
X146968000Y-54940028D01*
X146977951Y-54890000D01*
X146968000Y-54839972D01*
X146968000Y-52020420D01*
X148183836Y-50804585D01*
X148226247Y-50776247D01*
X148254586Y-50733835D01*
X148254588Y-50733833D01*
X148338525Y-50608212D01*
X148339761Y-50602000D01*
X148368000Y-50460032D01*
X148368000Y-50460028D01*
X148377951Y-50410000D01*
X148368000Y-50359972D01*
X148368000Y-36441591D01*
X148377951Y-36391563D01*
X148368000Y-36341535D01*
X148368000Y-36341532D01*
X148338525Y-36193352D01*
X148226247Y-36025317D01*
X148183832Y-35996976D01*
X144165010Y-31978154D01*
X144136671Y-31935742D01*
X144094259Y-31907403D01*
X144094257Y-31907401D01*
X143968636Y-31823464D01*
X143966308Y-31823001D01*
X143820456Y-31793989D01*
X143820453Y-31793989D01*
X143770425Y-31784038D01*
X143720397Y-31793989D01*
X126103464Y-31793991D01*
X126103464Y-30456000D01*
X148174119Y-30456000D01*
X148144308Y-30468348D01*
X148144308Y-30468348D01*
G37*
X148144308Y-30468348D02*
X147868348Y-30744308D01*
X147719000Y-31104867D01*
X147719000Y-31495133D01*
X147868348Y-31855692D01*
X148144308Y-32131652D01*
X148504867Y-32281000D01*
X148895133Y-32281000D01*
X149255692Y-32131652D01*
X149531652Y-31855692D01*
X149544001Y-31825879D01*
X149544001Y-51089500D01*
X149402401Y-50947900D01*
X149115351Y-50829000D01*
X148804649Y-50829000D01*
X148517599Y-50947900D01*
X148297900Y-51167599D01*
X148179000Y-51454649D01*
X148179000Y-51765351D01*
X148297900Y-52052401D01*
X148332001Y-52086502D01*
X148332000Y-53846536D01*
X147840000Y-53846536D01*
X147691341Y-53876106D01*
X147565314Y-53960314D01*
X147481106Y-54086341D01*
X147451536Y-54235000D01*
X147451536Y-55505000D01*
X147481106Y-55653659D01*
X147565314Y-55779686D01*
X147691341Y-55863894D01*
X147825810Y-55890641D01*
X147779000Y-56003651D01*
X147779000Y-56314353D01*
X147811267Y-56392251D01*
X147691341Y-56416106D01*
X147565314Y-56500314D01*
X147481106Y-56626341D01*
X147451536Y-56775000D01*
X147451536Y-58045000D01*
X147481106Y-58193659D01*
X147565314Y-58319686D01*
X147691341Y-58403894D01*
X147840000Y-58433464D01*
X149544001Y-58433464D01*
X149544001Y-58680000D01*
X149125750Y-58680000D01*
X148967000Y-58838750D01*
X148967000Y-59823000D01*
X148987000Y-59823000D01*
X148987000Y-60077000D01*
X148967000Y-60077000D01*
X148967000Y-61061250D01*
X149125750Y-61220000D01*
X149544000Y-61220000D01*
X149544000Y-61466536D01*
X147840000Y-61466536D01*
X147691341Y-61496106D01*
X147565314Y-61580314D01*
X147496990Y-61682569D01*
X146899001Y-61084581D01*
X146899001Y-60235750D01*
X147205000Y-60235750D01*
X147205000Y-60711310D01*
X147301673Y-60944699D01*
X147480302Y-61123327D01*
X147713691Y-61220000D01*
X148554250Y-61220000D01*
X148713000Y-61061250D01*
X148713000Y-60077000D01*
X147363750Y-60077000D01*
X147205000Y-60235750D01*
X146899001Y-60235750D01*
X146899001Y-59188690D01*
X147205000Y-59188690D01*
X147205000Y-59664250D01*
X147363750Y-59823000D01*
X148713000Y-59823000D01*
X148713000Y-58838750D01*
X148554250Y-58680000D01*
X147713691Y-58680000D01*
X147480302Y-58776673D01*
X147301673Y-58955301D01*
X147205000Y-59188690D01*
X146899001Y-59188690D01*
X146899001Y-57471028D01*
X146908952Y-57421000D01*
X146899001Y-57370972D01*
X146899001Y-57370969D01*
X146869526Y-57222789D01*
X146854055Y-57199635D01*
X146785589Y-57097168D01*
X146785587Y-57097166D01*
X146757248Y-57054754D01*
X146714836Y-57026415D01*
X146404589Y-56716169D01*
X146404587Y-56716166D01*
X146326073Y-56637652D01*
X146415116Y-56190000D01*
X146326073Y-55742348D01*
X146783836Y-55284585D01*
X146826247Y-55256247D01*
X146854586Y-55213835D01*
X146854588Y-55213833D01*
X146909617Y-55131475D01*
X146938525Y-55088212D01*
X146968000Y-54940032D01*
X146968000Y-54940028D01*
X146977951Y-54890000D01*
X146968000Y-54839972D01*
X146968000Y-52020420D01*
X148183836Y-50804585D01*
X148226247Y-50776247D01*
X148254586Y-50733835D01*
X148254588Y-50733833D01*
X148338525Y-50608212D01*
X148339761Y-50602000D01*
X148368000Y-50460032D01*
X148368000Y-50460028D01*
X148377951Y-50410000D01*
X148368000Y-50359972D01*
X148368000Y-36441591D01*
X148377951Y-36391563D01*
X148368000Y-36341535D01*
X148368000Y-36341532D01*
X148338525Y-36193352D01*
X148226247Y-36025317D01*
X148183832Y-35996976D01*
X144165010Y-31978154D01*
X144136671Y-31935742D01*
X144094259Y-31907403D01*
X144094257Y-31907401D01*
X143968636Y-31823464D01*
X143966308Y-31823001D01*
X143820456Y-31793989D01*
X143820453Y-31793989D01*
X143770425Y-31784038D01*
X143720397Y-31793989D01*
X126103464Y-31793991D01*
X126103464Y-30456000D01*
X148174119Y-30456000D01*
X148144308Y-30468348D01*
G36*
X91836166Y-34815414D02*
X91793754Y-34843753D01*
X91765415Y-34886165D01*
X91765412Y-34886168D01*
X91681475Y-35011789D01*
X91642049Y-35210000D01*
X91652001Y-35260033D01*
X91652000Y-43359972D01*
X91642049Y-43410000D01*
X91652000Y-43460028D01*
X91652000Y-43460031D01*
X91681475Y-43608211D01*
X91793753Y-43776247D01*
X91836168Y-43804588D01*
X92852001Y-44820422D01*
X92852000Y-60334579D01*
X92635000Y-60551579D01*
X92635000Y-60285750D01*
X92476250Y-60127000D01*
X91127000Y-60127000D01*
X91127000Y-61111250D01*
X91285750Y-61270000D01*
X91916580Y-61270000D01*
X91670044Y-61516536D01*
X90456000Y-61516536D01*
X90456000Y-61270000D01*
X90714250Y-61270000D01*
X90873000Y-61111250D01*
X90873000Y-60127000D01*
X90853000Y-60127000D01*
X90853000Y-59873000D01*
X90873000Y-59873000D01*
X90873000Y-58888750D01*
X91127000Y-58888750D01*
X91127000Y-59873000D01*
X92476250Y-59873000D01*
X92635000Y-59714250D01*
X92635000Y-59238690D01*
X92538327Y-59005301D01*
X92359698Y-58826673D01*
X92126309Y-58730000D01*
X91285750Y-58730000D01*
X91127000Y-58888750D01*
X90873000Y-58888750D01*
X90714250Y-58730000D01*
X90456000Y-58730000D01*
X90456000Y-58483464D01*
X92000000Y-58483464D01*
X92148659Y-58453894D01*
X92274686Y-58369686D01*
X92358894Y-58243659D01*
X92388464Y-58095000D01*
X92388464Y-56825000D01*
X92358894Y-56676341D01*
X92274686Y-56550314D01*
X92266295Y-56544707D01*
X92341000Y-56364353D01*
X92341000Y-56053651D01*
X92253965Y-55843531D01*
X92274686Y-55829686D01*
X92358894Y-55703659D01*
X92388464Y-55555000D01*
X92388464Y-54285000D01*
X92358894Y-54136341D01*
X92274686Y-54010314D01*
X92148659Y-53926106D01*
X92000000Y-53896536D01*
X91508000Y-53896536D01*
X91508000Y-52891000D01*
X91715351Y-52891000D01*
X92002401Y-52772100D01*
X92222100Y-52552401D01*
X92341000Y-52265351D01*
X92341000Y-51954649D01*
X92222100Y-51667599D01*
X92002401Y-51447900D01*
X91715351Y-51329000D01*
X91404649Y-51329000D01*
X91117599Y-51447900D01*
X90897900Y-51667599D01*
X90779000Y-51954649D01*
X90779000Y-52172580D01*
X90765413Y-52186167D01*
X90765412Y-52186169D01*
X90676167Y-52275414D01*
X90633754Y-52303753D01*
X90605415Y-52346165D01*
X90605412Y-52346168D01*
X90521475Y-52471789D01*
X90482049Y-52670000D01*
X90492001Y-52720033D01*
X90492000Y-53896536D01*
X90456000Y-53896536D01*
X90456000Y-31825881D01*
X90468348Y-31855692D01*
X90744308Y-32131652D01*
X91104867Y-32281000D01*
X91495133Y-32281000D01*
X91855692Y-32131652D01*
X92131652Y-31855692D01*
X92281000Y-31495133D01*
X92281000Y-31104867D01*
X92131652Y-30744308D01*
X91855692Y-30468348D01*
X91825881Y-30456000D01*
X96195579Y-30456000D01*
X91836166Y-34815414D01*
X91836166Y-34815414D01*
G37*
X91836166Y-34815414D02*
X91793754Y-34843753D01*
X91765415Y-34886165D01*
X91765412Y-34886168D01*
X91681475Y-35011789D01*
X91642049Y-35210000D01*
X91652001Y-35260033D01*
X91652000Y-43359972D01*
X91642049Y-43410000D01*
X91652000Y-43460028D01*
X91652000Y-43460031D01*
X91681475Y-43608211D01*
X91793753Y-43776247D01*
X91836168Y-43804588D01*
X92852001Y-44820422D01*
X92852000Y-60334579D01*
X92635000Y-60551579D01*
X92635000Y-60285750D01*
X92476250Y-60127000D01*
X91127000Y-60127000D01*
X91127000Y-61111250D01*
X91285750Y-61270000D01*
X91916580Y-61270000D01*
X91670044Y-61516536D01*
X90456000Y-61516536D01*
X90456000Y-61270000D01*
X90714250Y-61270000D01*
X90873000Y-61111250D01*
X90873000Y-60127000D01*
X90853000Y-60127000D01*
X90853000Y-59873000D01*
X90873000Y-59873000D01*
X90873000Y-58888750D01*
X91127000Y-58888750D01*
X91127000Y-59873000D01*
X92476250Y-59873000D01*
X92635000Y-59714250D01*
X92635000Y-59238690D01*
X92538327Y-59005301D01*
X92359698Y-58826673D01*
X92126309Y-58730000D01*
X91285750Y-58730000D01*
X91127000Y-58888750D01*
X90873000Y-58888750D01*
X90714250Y-58730000D01*
X90456000Y-58730000D01*
X90456000Y-58483464D01*
X92000000Y-58483464D01*
X92148659Y-58453894D01*
X92274686Y-58369686D01*
X92358894Y-58243659D01*
X92388464Y-58095000D01*
X92388464Y-56825000D01*
X92358894Y-56676341D01*
X92274686Y-56550314D01*
X92266295Y-56544707D01*
X92341000Y-56364353D01*
X92341000Y-56053651D01*
X92253965Y-55843531D01*
X92274686Y-55829686D01*
X92358894Y-55703659D01*
X92388464Y-55555000D01*
X92388464Y-54285000D01*
X92358894Y-54136341D01*
X92274686Y-54010314D01*
X92148659Y-53926106D01*
X92000000Y-53896536D01*
X91508000Y-53896536D01*
X91508000Y-52891000D01*
X91715351Y-52891000D01*
X92002401Y-52772100D01*
X92222100Y-52552401D01*
X92341000Y-52265351D01*
X92341000Y-51954649D01*
X92222100Y-51667599D01*
X92002401Y-51447900D01*
X91715351Y-51329000D01*
X91404649Y-51329000D01*
X91117599Y-51447900D01*
X90897900Y-51667599D01*
X90779000Y-51954649D01*
X90779000Y-52172580D01*
X90765413Y-52186167D01*
X90765412Y-52186169D01*
X90676167Y-52275414D01*
X90633754Y-52303753D01*
X90605415Y-52346165D01*
X90605412Y-52346168D01*
X90521475Y-52471789D01*
X90482049Y-52670000D01*
X90492001Y-52720033D01*
X90492000Y-53896536D01*
X90456000Y-53896536D01*
X90456000Y-31825881D01*
X90468348Y-31855692D01*
X90744308Y-32131652D01*
X91104867Y-32281000D01*
X91495133Y-32281000D01*
X91855692Y-32131652D01*
X92131652Y-31855692D01*
X92281000Y-31495133D01*
X92281000Y-31104867D01*
X92131652Y-30744308D01*
X91855692Y-30468348D01*
X91825881Y-30456000D01*
X96195579Y-30456000D01*
X91836166Y-34815414D01*
G36*
X94967000Y-48443000D02*
X94987000Y-48443000D01*
X94987000Y-48697000D01*
X94967000Y-48697000D01*
X94967000Y-48717000D01*
X94713000Y-48717000D01*
X94713000Y-48697000D01*
X94693000Y-48697000D01*
X94693000Y-48443000D01*
X94713000Y-48443000D01*
X94713000Y-48423000D01*
X94967000Y-48423000D01*
X94967000Y-48443000D01*
X94967000Y-48443000D01*
G37*
X94967000Y-48443000D02*
X94987000Y-48443000D01*
X94987000Y-48697000D01*
X94967000Y-48697000D01*
X94967000Y-48717000D01*
X94713000Y-48717000D01*
X94713000Y-48697000D01*
X94693000Y-48697000D01*
X94693000Y-48443000D01*
X94713000Y-48443000D01*
X94713000Y-48423000D01*
X94967000Y-48423000D01*
X94967000Y-48443000D01*
G36*
X118730000Y-30664250D02*
X118888750Y-30823000D01*
X119873000Y-30823000D01*
X119873000Y-30803000D01*
X120127000Y-30803000D01*
X120127000Y-30823000D01*
X121111250Y-30823000D01*
X121270000Y-30664250D01*
X121270000Y-30456000D01*
X121516536Y-30456000D01*
X121516536Y-31620044D01*
X121327166Y-31809414D01*
X121284754Y-31837753D01*
X121270000Y-31859834D01*
X121270000Y-31235750D01*
X121111250Y-31077000D01*
X120127000Y-31077000D01*
X120127000Y-32426250D01*
X120285750Y-32585000D01*
X120761310Y-32585000D01*
X120994699Y-32488327D01*
X121143001Y-32340025D01*
X121143000Y-32434259D01*
X119341201Y-34236059D01*
X119298789Y-34264398D01*
X119270450Y-34306810D01*
X119270447Y-34306813D01*
X119186510Y-34432434D01*
X119147084Y-34630645D01*
X119157036Y-34680678D01*
X119157036Y-34988616D01*
X118754588Y-34586168D01*
X118754587Y-34586166D01*
X118741000Y-34572579D01*
X118741000Y-34354649D01*
X118622100Y-34067599D01*
X118402401Y-33847900D01*
X118115351Y-33729000D01*
X117968000Y-33729000D01*
X117968000Y-33660028D01*
X117977951Y-33610000D01*
X117968000Y-33559972D01*
X117968000Y-32338464D01*
X118095000Y-32338464D01*
X118243659Y-32308894D01*
X118369686Y-32224686D01*
X118453894Y-32098659D01*
X118483464Y-31950000D01*
X118483464Y-31235750D01*
X118730000Y-31235750D01*
X118730000Y-32076309D01*
X118826673Y-32309698D01*
X119005301Y-32488327D01*
X119238690Y-32585000D01*
X119714250Y-32585000D01*
X119873000Y-32426250D01*
X119873000Y-31077000D01*
X118888750Y-31077000D01*
X118730000Y-31235750D01*
X118483464Y-31235750D01*
X118483464Y-30456000D01*
X118730000Y-30456000D01*
X118730000Y-30664250D01*
X118730000Y-30664250D01*
G37*
X118730000Y-30664250D02*
X118888750Y-30823000D01*
X119873000Y-30823000D01*
X119873000Y-30803000D01*
X120127000Y-30803000D01*
X120127000Y-30823000D01*
X121111250Y-30823000D01*
X121270000Y-30664250D01*
X121270000Y-30456000D01*
X121516536Y-30456000D01*
X121516536Y-31620044D01*
X121327166Y-31809414D01*
X121284754Y-31837753D01*
X121270000Y-31859834D01*
X121270000Y-31235750D01*
X121111250Y-31077000D01*
X120127000Y-31077000D01*
X120127000Y-32426250D01*
X120285750Y-32585000D01*
X120761310Y-32585000D01*
X120994699Y-32488327D01*
X121143001Y-32340025D01*
X121143000Y-32434259D01*
X119341201Y-34236059D01*
X119298789Y-34264398D01*
X119270450Y-34306810D01*
X119270447Y-34306813D01*
X119186510Y-34432434D01*
X119147084Y-34630645D01*
X119157036Y-34680678D01*
X119157036Y-34988616D01*
X118754588Y-34586168D01*
X118754587Y-34586166D01*
X118741000Y-34572579D01*
X118741000Y-34354649D01*
X118622100Y-34067599D01*
X118402401Y-33847900D01*
X118115351Y-33729000D01*
X117968000Y-33729000D01*
X117968000Y-33660028D01*
X117977951Y-33610000D01*
X117968000Y-33559972D01*
X117968000Y-32338464D01*
X118095000Y-32338464D01*
X118243659Y-32308894D01*
X118369686Y-32224686D01*
X118453894Y-32098659D01*
X118483464Y-31950000D01*
X118483464Y-31235750D01*
X118730000Y-31235750D01*
X118730000Y-32076309D01*
X118826673Y-32309698D01*
X119005301Y-32488327D01*
X119238690Y-32585000D01*
X119714250Y-32585000D01*
X119873000Y-32426250D01*
X119873000Y-31077000D01*
X118888750Y-31077000D01*
X118730000Y-31235750D01*
X118483464Y-31235750D01*
X118483464Y-30456000D01*
X118730000Y-30456000D01*
X118730000Y-30664250D01*
M02*
