G04 #@! TF.GenerationSoftware,KiCad,Pcbnew,(5.0.0-rc2-dev-111-gc69db6c)*
G04 #@! TF.CreationDate,2018-03-20T00:35:28-07:00*
G04 #@! TF.ProjectId,Feather_Trellis,466561746865725F5472656C6C69732E,rev?*
G04 #@! TF.SameCoordinates,Original*
G04 #@! TF.FileFunction,Soldermask,Bot*
G04 #@! TF.FilePolarity,Negative*
%FSLAX46Y46*%
G04 Gerber Fmt 4.6, Leading zero omitted, Abs format (unit mm)*
G04 Created by KiCad (PCBNEW (5.0.0-rc2-dev-111-gc69db6c)) date Tuesday, March 20, 2018 at 12:35:28 AM*
%MOMM*%
%LPD*%
G01*
G04 APERTURE LIST*
%ADD10C,1.600000*%
%ADD11R,2.400000X1.670000*%
%ADD12R,1.670000X2.400000*%
%ADD13C,2.900000*%
%ADD14R,2.100000X2.100000*%
%ADD15O,2.100000X2.100000*%
G04 APERTURE END LIST*
D10*
X148700000Y-88700000D03*
X148760000Y-31310000D03*
X91300000Y-88700000D03*
X91300000Y-31300000D03*
D11*
X148840000Y-65030000D03*
X148840000Y-62490000D03*
X148840000Y-59950000D03*
X148840000Y-57410000D03*
X148840000Y-54870000D03*
D12*
X125080000Y-89000000D03*
X122540000Y-89000000D03*
X120000000Y-89000000D03*
X117460000Y-89000000D03*
X114920000Y-89000000D03*
D11*
X91000000Y-65080000D03*
X91000000Y-62540000D03*
X91000000Y-60000000D03*
X91000000Y-57460000D03*
X91000000Y-54920000D03*
D12*
X114920000Y-30950000D03*
X117460000Y-30950000D03*
X120000000Y-30950000D03*
X122540000Y-30950000D03*
X125080000Y-30950000D03*
D13*
X126110000Y-82860000D03*
X143890000Y-82860000D03*
X96110000Y-37140000D03*
X113890000Y-82860000D03*
X143890000Y-37140000D03*
X113890000Y-37140000D03*
X126110000Y-37140000D03*
X96110000Y-82860000D03*
D14*
X145160000Y-51110000D03*
D15*
X145160000Y-53650000D03*
X145160000Y-56190000D03*
X145160000Y-58730000D03*
X145160000Y-61270000D03*
X145160000Y-63810000D03*
X145160000Y-66350000D03*
X145160000Y-68890000D03*
X145160000Y-71430000D03*
X145160000Y-73970000D03*
X145160000Y-76510000D03*
X145160000Y-79050000D03*
X115160000Y-79050000D03*
X115160000Y-76510000D03*
X115160000Y-73970000D03*
X115160000Y-71430000D03*
X115160000Y-68890000D03*
X115160000Y-66350000D03*
X115160000Y-63810000D03*
X115160000Y-61270000D03*
X115160000Y-58730000D03*
X115160000Y-56190000D03*
X115160000Y-53650000D03*
D14*
X115160000Y-51110000D03*
X124840000Y-40950000D03*
D15*
X124840000Y-43490000D03*
X124840000Y-46030000D03*
X124840000Y-48570000D03*
X124840000Y-51110000D03*
X124840000Y-53650000D03*
X124840000Y-56190000D03*
X124840000Y-58730000D03*
X124840000Y-61270000D03*
X124840000Y-63810000D03*
X124840000Y-66350000D03*
X124840000Y-68890000D03*
X124840000Y-71430000D03*
X124840000Y-73970000D03*
X124840000Y-76510000D03*
X124840000Y-79050000D03*
X94840000Y-79050000D03*
X94840000Y-76510000D03*
X94840000Y-73970000D03*
X94840000Y-71430000D03*
X94840000Y-68890000D03*
X94840000Y-66350000D03*
X94840000Y-63810000D03*
X94840000Y-61270000D03*
X94840000Y-58730000D03*
X94840000Y-56190000D03*
X94840000Y-53650000D03*
X94840000Y-51110000D03*
X94840000Y-48570000D03*
X94840000Y-46030000D03*
X94840000Y-43490000D03*
D14*
X94840000Y-40950000D03*
M02*
