G04 #@! TF.GenerationSoftware,KiCad,Pcbnew,(5.0.0-rc2-dev-111-gc69db6c)*
G04 #@! TF.CreationDate,2018-03-20T00:35:28-07:00*
G04 #@! TF.ProjectId,Feather_Trellis,466561746865725F5472656C6C69732E,rev?*
G04 #@! TF.SameCoordinates,Original*
G04 #@! TF.FileFunction,Legend,Top*
G04 #@! TF.FilePolarity,Positive*
%FSLAX46Y46*%
G04 Gerber Fmt 4.6, Leading zero omitted, Abs format (unit mm)*
G04 Created by KiCad (PCBNEW (5.0.0-rc2-dev-111-gc69db6c)) date Tuesday, March 20, 2018 at 12:35:28 AM*
%MOMM*%
%LPD*%
G01*
G04 APERTURE LIST*
%ADD10C,0.400000*%
%ADD11C,0.200000*%
%ADD12C,0.120000*%
G04 APERTURE END LIST*
D10*
X101112380Y-60724285D02*
X101017142Y-60819523D01*
X100731428Y-60914761D01*
X100540952Y-60914761D01*
X100255238Y-60819523D01*
X100064761Y-60629047D01*
X99969523Y-60438571D01*
X99874285Y-60057619D01*
X99874285Y-59771904D01*
X99969523Y-59390952D01*
X100064761Y-59200476D01*
X100255238Y-59010000D01*
X100540952Y-58914761D01*
X100731428Y-58914761D01*
X101017142Y-59010000D01*
X101112380Y-59105238D01*
X101969523Y-58914761D02*
X101969523Y-60533809D01*
X102064761Y-60724285D01*
X102160000Y-60819523D01*
X102350476Y-60914761D01*
X102731428Y-60914761D01*
X102921904Y-60819523D01*
X103017142Y-60724285D01*
X103112380Y-60533809D01*
X103112380Y-58914761D01*
X103779047Y-58914761D02*
X104921904Y-58914761D01*
X104350476Y-60914761D02*
X104350476Y-58914761D01*
X105969523Y-58914761D02*
X106350476Y-58914761D01*
X106540952Y-59010000D01*
X106731428Y-59200476D01*
X106826666Y-59581428D01*
X106826666Y-60248095D01*
X106731428Y-60629047D01*
X106540952Y-60819523D01*
X106350476Y-60914761D01*
X105969523Y-60914761D01*
X105779047Y-60819523D01*
X105588571Y-60629047D01*
X105493333Y-60248095D01*
X105493333Y-59581428D01*
X105588571Y-59200476D01*
X105779047Y-59010000D01*
X105969523Y-58914761D01*
X107683809Y-58914761D02*
X107683809Y-60533809D01*
X107779047Y-60724285D01*
X107874285Y-60819523D01*
X108064761Y-60914761D01*
X108445714Y-60914761D01*
X108636190Y-60819523D01*
X108731428Y-60724285D01*
X108826666Y-60533809D01*
X108826666Y-58914761D01*
X109493333Y-58914761D02*
X110636190Y-58914761D01*
X110064761Y-60914761D02*
X110064761Y-58914761D01*
X130912380Y-60624285D02*
X130817142Y-60719523D01*
X130531428Y-60814761D01*
X130340952Y-60814761D01*
X130055238Y-60719523D01*
X129864761Y-60529047D01*
X129769523Y-60338571D01*
X129674285Y-59957619D01*
X129674285Y-59671904D01*
X129769523Y-59290952D01*
X129864761Y-59100476D01*
X130055238Y-58910000D01*
X130340952Y-58814761D01*
X130531428Y-58814761D01*
X130817142Y-58910000D01*
X130912380Y-59005238D01*
X131769523Y-58814761D02*
X131769523Y-60433809D01*
X131864761Y-60624285D01*
X131960000Y-60719523D01*
X132150476Y-60814761D01*
X132531428Y-60814761D01*
X132721904Y-60719523D01*
X132817142Y-60624285D01*
X132912380Y-60433809D01*
X132912380Y-58814761D01*
X133579047Y-58814761D02*
X134721904Y-58814761D01*
X134150476Y-60814761D02*
X134150476Y-58814761D01*
X135769523Y-58814761D02*
X136150476Y-58814761D01*
X136340952Y-58910000D01*
X136531428Y-59100476D01*
X136626666Y-59481428D01*
X136626666Y-60148095D01*
X136531428Y-60529047D01*
X136340952Y-60719523D01*
X136150476Y-60814761D01*
X135769523Y-60814761D01*
X135579047Y-60719523D01*
X135388571Y-60529047D01*
X135293333Y-60148095D01*
X135293333Y-59481428D01*
X135388571Y-59100476D01*
X135579047Y-58910000D01*
X135769523Y-58814761D01*
X137483809Y-58814761D02*
X137483809Y-60433809D01*
X137579047Y-60624285D01*
X137674285Y-60719523D01*
X137864761Y-60814761D01*
X138245714Y-60814761D01*
X138436190Y-60719523D01*
X138531428Y-60624285D01*
X138626666Y-60433809D01*
X138626666Y-58814761D01*
X139293333Y-58814761D02*
X140436190Y-58814761D01*
X139864761Y-60814761D02*
X139864761Y-58814761D01*
D11*
X113890000Y-34600000D02*
G75*
G02X116430000Y-37140000I0J-2540000D01*
G01*
X93570000Y-37140000D02*
G75*
G02X96110000Y-34600000I2540000J0D01*
G01*
X96110000Y-85400000D02*
G75*
G02X93570000Y-82860000I0J2540000D01*
G01*
X116430000Y-82860000D02*
G75*
G02X113890000Y-85400000I-2540000J0D01*
G01*
X126110000Y-85400000D02*
G75*
G02X123570000Y-82860000I0J2540000D01*
G01*
X146430000Y-82860000D02*
G75*
G02X143890000Y-85400000I-2540000J0D01*
G01*
X123570000Y-37140000D02*
G75*
G02X126110000Y-34600000I2540000J0D01*
G01*
X143890000Y-34600000D02*
G75*
G02X146430000Y-37140000I0J-2540000D01*
G01*
D12*
X143830000Y-80380000D02*
X146490000Y-80380000D01*
X143830000Y-52380000D02*
X143830000Y-80380000D01*
X146490000Y-52380000D02*
X146490000Y-80380000D01*
X143830000Y-52380000D02*
X146490000Y-52380000D01*
X143830000Y-51110000D02*
X143830000Y-49780000D01*
X143830000Y-49780000D02*
X145160000Y-49780000D01*
X113830000Y-49780000D02*
X115160000Y-49780000D01*
X113830000Y-51110000D02*
X113830000Y-49780000D01*
X113830000Y-52380000D02*
X116490000Y-52380000D01*
X116490000Y-52380000D02*
X116490000Y-80380000D01*
X113830000Y-52380000D02*
X113830000Y-80380000D01*
X113830000Y-80380000D02*
X116490000Y-80380000D01*
X123510000Y-80380000D02*
X126170000Y-80380000D01*
X123510000Y-42220000D02*
X123510000Y-80380000D01*
X126170000Y-42220000D02*
X126170000Y-80380000D01*
X123510000Y-42220000D02*
X126170000Y-42220000D01*
X123510000Y-40950000D02*
X123510000Y-39620000D01*
X123510000Y-39620000D02*
X124840000Y-39620000D01*
X93510000Y-39620000D02*
X94840000Y-39620000D01*
X93510000Y-40950000D02*
X93510000Y-39620000D01*
X93510000Y-42220000D02*
X96170000Y-42220000D01*
X96170000Y-42220000D02*
X96170000Y-80380000D01*
X93510000Y-42220000D02*
X93510000Y-80380000D01*
X93510000Y-80380000D02*
X96170000Y-80380000D01*
M02*
